<svg width="16" height="9" viewBox="0 0 16 9" fill="none" xmlns="http://www.w3.org/2000/svg">
<path d="M2.00033 5.83333L2.33366 5.88L5.38033 2.83333C5.3192 2.60947 5.31911 2.37332 5.38007 2.14941C5.44103 1.9255 5.56082 1.72198 5.72699 1.56C6.24699 1.03333 7.08699 1.03333 7.60699 1.56C7.96033 1.90667 8.07366 2.4 7.95366 2.83333L9.66699 4.54667L10.0003 4.5C10.1203 4.5 10.2337 4.5 10.3337 4.54667L12.7137 2.16667C12.667 2.06667 12.667 1.95333 12.667 1.83333C12.667 1.47971 12.8075 1.14057 13.0575 0.890524C13.3076 0.640476 13.6467 0.5 14.0003 0.5C14.3539 0.5 14.6931 0.640476 14.9431 0.890524C15.1932 1.14057 15.3337 1.47971 15.3337 1.83333C15.3337 2.18696 15.1932 2.52609 14.9431 2.77614C14.6931 3.02619 14.3539 3.16667 14.0003 3.16667C13.8803 3.16667 13.767 3.16667 13.667 3.12L11.287 5.5C11.3337 5.6 11.3337 5.71333 11.3337 5.83333C11.3337 6.18696 11.1932 6.52609 10.9431 6.77614C10.6931 7.02619 10.3539 7.16667 10.0003 7.16667C9.6467 7.16667 9.30757 7.02619 9.05752 6.77614C8.80747 6.52609 8.66699 6.18696 8.66699 5.83333L8.71366 5.5L7.00033 3.78667C6.78699 3.83333 6.54699 3.83333 6.33366 3.78667L3.28699 6.83333L3.33366 7.16667C3.33366 7.52029 3.19318 7.85943 2.94313 8.10948C2.69309 8.35952 2.35395 8.5 2.00033 8.5C1.6467 8.5 1.30757 8.35952 1.05752 8.10948C0.807468 7.85943 0.666992 7.52029 0.666992 7.16667C0.666992 6.81305 0.807468 6.47391 1.05752 6.22386C1.30757 5.97381 1.6467 5.83333 2.00033 5.83333Z" fill="#3E9B4B"/>
</svg>
